<?xml version="1.0" encoding="utf-8"?>
<!-- Generator: Adobe Illustrator 21.0.0, SVG Export Plug-In . SVG Version: 6.00 Build 0)  -->
<svg version="1.1" id="Layer_1" xmlns="http://www.w3.org/2000/svg" xmlns:xlink="http://www.w3.org/1999/xlink" x="0px" y="0px"
	 viewBox="0 0 432 432" style="enable-background:new 0 0 432 432;" xml:space="preserve">
<style type="text/css">
	.st0{fill:url(#SVGID_1_);}
	.st1{fill:url(#SVGID_2_);}
	.st2{fill:url(#SVGID_3_);}
	.st3{fill:url(#SVGID_4_);}
	.st4{fill:url(#SVGID_5_);}
	.st5{fill:url(#SVGID_6_);}
	.st6{fill:url(#SVGID_7_);}
</style>
<g>
	<g>
		<g>
			<linearGradient id="SVGID_1_" gradientUnits="userSpaceOnUse" x1="164.8663" y1="219.6733" x2="198.7062" y2="219.6733">
				<stop  offset="0" style="stop-color:#0071FF"/>
				<stop  offset="1" style="stop-color:#02BAFF"/>
			</linearGradient>
			<ellipse class="st0" cx="181.8" cy="219.7" rx="16.9" ry="21.9"/>
		</g>
		<g>
			<linearGradient id="SVGID_2_" gradientUnits="userSpaceOnUse" x1="237.034" y1="219.6733" x2="270.8737" y2="219.6733">
				<stop  offset="0" style="stop-color:#0071FF"/>
				<stop  offset="1" style="stop-color:#02BAFF"/>
			</linearGradient>
			<ellipse class="st1" cx="254" cy="219.7" rx="16.9" ry="21.9"/>
		</g>
		<g>
			<linearGradient id="SVGID_3_" gradientUnits="userSpaceOnUse" x1="80.2277" y1="218.9042" x2="96.4616" y2="218.9042">
				<stop  offset="0" style="stop-color:#0071FF"/>
				<stop  offset="1" style="stop-color:#02BAFF"/>
			</linearGradient>
			<path class="st2" d="M80.2,193.6v50.6c0,9,7.3,16.2,16.2,16.2h0v-83h0C87.5,177.4,80.2,184.7,80.2,193.6z"/>
		</g>
		<g>
			<linearGradient id="SVGID_4_" gradientUnits="userSpaceOnUse" x1="63.8879" y1="217.2258" x2="72.876" y2="217.2258">
				<stop  offset="0" style="stop-color:#0071FF"/>
				<stop  offset="1" style="stop-color:#02BAFF"/>
			</linearGradient>
			<path class="st3" d="M72.3,191.1c-4.6,0-8.4,3.8-8.4,8.4v35.4c0,4.6,3.8,8.4,8.4,8.4c0.3,0,0.6-0.3,0.6-0.6v-51
				C72.9,191.4,72.6,191.1,72.3,191.1z"/>
		</g>
		<g>
			<linearGradient id="SVGID_5_" gradientUnits="userSpaceOnUse" x1="341.7961" y1="218.9042" x2="358.03" y2="218.9042">
				<stop  offset="0" style="stop-color:#0071FF"/>
				<stop  offset="1" style="stop-color:#02BAFF"/>
			</linearGradient>
			<path class="st4" d="M341.8,177.4L341.8,177.4l0,83h0c9,0,16.2-7.3,16.2-16.2v-50.6C358,184.7,350.8,177.4,341.8,177.4z"/>
		</g>
		<g>
			<linearGradient id="SVGID_6_" gradientUnits="userSpaceOnUse" x1="365.4597" y1="217.2258" x2="374.4475" y2="217.2258">
				<stop  offset="0" style="stop-color:#0071FF"/>
				<stop  offset="1" style="stop-color:#02BAFF"/>
			</linearGradient>
			<path class="st5" d="M366.1,191.1c-0.3,0-0.6,0.3-0.6,0.6v51c0,0.3,0.3,0.6,0.6,0.6c4.6,0,8.4-3.8,8.4-8.4v-35.4
				C374.4,194.9,370.7,191.1,366.1,191.1z"/>
		</g>
		<g>
			<g>
				<linearGradient id="SVGID_7_" gradientUnits="userSpaceOnUse" x1="104.5645" y1="221.128" x2="333.6931" y2="221.128">
					<stop  offset="0" style="stop-color:#0071FF"/>
					<stop  offset="1" style="stop-color:#02BAFF"/>
				</linearGradient>
				<path class="st6" d="M286.8,123l17.3-33.8c2.9-5.7,0.3-12.6-5.9-15.3c-6.2-2.7-13.6-0.2-16.5,5.5l0,0l-18.5,36
					c-1.7,3.3-5.1,5.4-8.8,5.4h-70.4c-3.5,0-6.6-1.9-8.2-5l-18.6-36.4c-2.9-5.7-10.3-8.2-16.5-5.5c-6.2,2.7-8.8,9.6-5.9,15.3
					l17.2,33.6c-27.3,7-47.5,31.8-47.5,61.3v68.2c0,35,28.3,63.3,63.3,63.3h25.3c2.6,0,4.6,2.1,4.6,4.6v40.9
					c0,6.6,7.3,10.5,12.8,6.8l90.4-60.3l0,0c19.5-10.8,32.7-31.6,32.7-55.4v-68.2C333.7,154.8,313.8,130.2,286.8,123z M304.9,247.6
					c0,20.6-16.7,37.3-37.3,37.3h-99.4c-20.6,0-37.3-16.7-37.3-37.3v-58.8c0-20.6,16.7-37.3,37.3-37.3h3.1c0,0.1,0,0.2,0,0.3
					c0,9.8,21.4,17.8,47.7,17.8c26.4,0,47.7-8,47.7-17.8c0-0.1,0-0.2,0-0.3h0.8c20.6,0,37.3,16.7,37.3,37.3V247.6z"/>
			</g>
		</g>
	</g>
</g>
</svg>
